<svg width="60" height="80" viewBox="0 0 60 80" fill="none" xmlns="http://www.w3.org/2000/svg">
<path id="5" d="M59.646 63.2018H50.1499V79.5502H33.8555V63.2018H0.1875V51.6015L34.7727 0.667969H50.1499V50.2526H59.646V63.2018ZM33.8555 50.2526V36.8718C33.8555 35.6128 33.8735 34.1201 33.9094 32.3935C33.9814 30.667 34.0533 28.9404 34.1252 27.2138C34.1972 25.4873 34.2691 23.9585 34.3411 22.6277C34.449 21.2608 34.5209 20.3076 34.5569 19.768H34.1252C33.4418 21.2428 32.7224 22.6816 31.967 24.0844C31.2117 25.4513 30.3304 26.8901 29.3232 28.4008L14.8633 50.2526H33.8555Z" fill="url(#paint0_linear_7408_11549)"/>
<defs>
<linearGradient id="paint0_linear_7408_11549" x1="4.70053" y1="5.93106" x2="63.003" y2="49.3538" gradientUnits="userSpaceOnUse">
<stop stop-color="#B14378"/>
<stop offset="1" stop-color="#B14378"/>
</linearGradient>
</defs>
</svg>
