<svg width="24" height="24" viewBox="0 0 24 24" fill="none" xmlns="http://www.w3.org/2000/svg">
<g id="mdi:baby-bottle-outline">
<path id="Vector" d="M11.2796 2.79994L10.7796 3.29994C9.43962 2.54994 7.83961 2.39994 6.40961 2.86994L6.32961 2.79994C5.35961 1.81994 3.76961 1.81994 2.79961 2.79994C1.82961 3.77994 1.81961 5.35994 2.79961 6.32994L2.86961 6.40994C2.39961 7.83994 2.54961 9.43994 3.29961 10.7799L2.79961 11.2799C2.65932 11.4185 2.54794 11.5836 2.47192 11.7655C2.3959 11.9475 2.35675 12.1427 2.35675 12.3399C2.35675 12.5371 2.3959 12.7324 2.47192 12.9143C2.54794 13.0963 2.65932 13.2614 2.79961 13.3999L4.20961 14.8199C4.79961 15.3999 5.73961 15.3999 6.32961 14.8199L6.67961 14.4599L13.7596 21.5299C14.3396 22.1199 15.2896 22.1199 15.8796 21.5299L21.5296 15.8799C22.1196 15.2899 22.1196 14.3399 21.5296 13.7499L14.4596 6.67994L14.8196 6.32994C15.3996 5.73994 15.3996 4.79994 14.8196 4.20994L13.3996 2.78994C13.117 2.51036 12.735 2.35438 12.3375 2.35625C11.94 2.35813 11.5595 2.51771 11.2796 2.79994ZM4.24961 7.04994C4.32961 6.70994 4.46961 6.37994 4.65961 6.06994L3.85961 5.26994C3.75225 5.16857 3.673 5.04109 3.62961 4.89994C3.49961 4.55994 3.56961 4.13994 3.85961 3.85994C4.14961 3.57994 4.55961 3.49994 4.89961 3.62994C5.03961 3.66994 5.15961 3.74994 5.26961 3.85994L6.06961 4.65994C6.37961 4.46994 6.70961 4.32994 7.04961 4.24994C7.90962 3.99994 8.82961 4.05994 9.64961 4.41994L4.41961 9.64994C4.05961 8.82994 3.99961 7.90994 4.24961 7.04994ZM20.4696 14.8199L14.8196 20.4699L7.74961 13.3999L13.3996 7.74994L20.4696 14.8199ZM13.7596 5.26994L5.26961 13.7599L3.85961 12.3399L12.3396 3.85994L13.7596 5.26994ZM14.8196 11.6299L11.6296 14.8199L10.5696 13.7599L13.7596 10.5699L14.8196 11.6299ZM16.9396 13.7599L13.7596 16.9399L12.6896 15.8799L15.8796 12.6899L16.9396 13.7599Z" fill="#B14378"/>
</g>
</svg>
