<svg width="97" height="97" viewBox="0 0 97 97" fill="none" xmlns="http://www.w3.org/2000/svg">
<g id="mdi:baby-bottle-outline">
<path id="Vector" d="M45.5928 11.305L43.574 13.3237C38.1638 10.2956 31.7038 9.68996 25.9302 11.5876L25.6072 11.305C21.6908 7.34822 15.2712 7.34822 11.3548 11.305C7.43841 15.2617 7.39804 21.6409 11.3548 25.5573L11.6374 25.8803C9.73978 31.6539 10.3454 38.1139 13.3735 43.5242L11.3548 45.5429C10.7884 46.1025 10.3387 46.7689 10.0317 47.5035C9.72478 48.2382 9.56673 49.0265 9.56673 49.8227C9.56673 50.6189 9.72478 51.4071 10.0317 52.1418C10.3387 52.8764 10.7884 53.5429 11.3548 54.1024L17.0477 59.8357C19.4298 62.1774 23.225 62.1774 25.6072 59.8357L27.0203 58.3822L55.6058 86.9272C57.9475 89.3094 61.7832 89.3094 64.1653 86.9272L86.9772 64.1154C89.3593 61.7333 89.3593 57.8977 86.9772 55.5155L58.432 26.9704L59.8855 25.5573C62.2273 23.1752 62.2273 19.38 59.8855 16.9978L54.1523 11.2646C53.0114 10.1358 51.4691 9.50601 49.8642 9.51358C48.2593 9.52115 46.723 10.1655 45.5928 11.305ZM17.2092 28.4643C17.5322 27.0916 18.0974 25.7592 18.8645 24.5076L15.6345 21.2776C15.201 20.8683 14.8811 20.3536 14.7059 19.7837C14.181 18.411 14.4637 16.7152 15.6345 15.5847C16.8054 14.4542 18.4608 14.1312 19.8335 14.6561C20.3988 14.8176 20.8833 15.1406 21.3274 15.5847L24.5574 18.8147C25.809 18.0476 27.1414 17.4823 28.5142 17.1593C31.9864 16.15 35.7009 16.3922 39.0117 17.8457L17.8955 38.9618C16.442 35.6511 16.1998 31.9366 17.2092 28.4643ZM82.6974 59.8357L59.8855 82.6475L31.3404 54.1024L54.1523 31.2906L82.6974 59.8357ZM55.6058 21.2776L21.3274 55.5559L15.6345 49.8227L49.8725 15.5847L55.6058 21.2776ZM59.8855 46.956L47.0059 59.8357L42.7262 55.5559L55.6058 42.6763L59.8855 46.956ZM68.445 55.5559L55.6058 68.3951L51.2857 64.1154L64.1653 51.2358L68.445 55.5559Z" fill="url(#paint0_linear_7408_11547)"/>
</g>
<defs>
<linearGradient id="paint0_linear_7408_11547" x1="14.502" y1="13.7002" x2="76.5019" y2="74.9502" gradientUnits="userSpaceOnUse">
<stop stop-color="#EDB1CB"/>
<stop offset="1" stop-color="#B14378"/>
</linearGradient>
</defs>
</svg>
