<svg width="18" height="16" viewBox="0 0 18 16" fill="none" xmlns="http://www.w3.org/2000/svg">
<path fill-rule="evenodd" clip-rule="evenodd" d="M0 0.96875C0 0.502764 0.377759 0.125 0.84375 0.125H5.62822C7.00888 0.125 8.23476 0.788278 9.00442 1.81369C9.77403 0.788323 10.9999 0.125 12.3806 0.125H17.1562C17.6222 0.125 18 0.502764 18 0.96875V12.7812C18 13.2472 17.6222 13.625 17.1562 13.625H12.0854C11.4141 13.625 10.7703 13.8917 10.2956 14.3664L9.59662 15.0653C9.26712 15.3948 8.73288 15.3948 8.40338 15.0653L7.70439 14.3664C7.22969 13.8917 6.58586 13.625 5.91453 13.625H0.84375C0.377759 13.625 0 13.2472 0 12.7812V0.96875ZM9.84937 4.34375C9.84937 2.94578 10.9827 1.8125 12.3806 1.8125H16.3125V11.9375H12.0854C11.2867 11.9375 10.5113 12.1641 9.84514 12.5815L9.84937 4.34375ZM8.15764 12.5833L8.16187 6.8758L8.15946 4.34134C8.15813 2.94431 7.02524 1.8125 5.62822 1.8125H1.6875V11.9375H5.91453C6.71441 11.9375 7.49086 12.1646 8.15764 12.5833Z" fill="#B14378"/>
</svg>
