<svg width="21" height="22" viewBox="0 0 21 22" fill="none" xmlns="http://www.w3.org/2000/svg">
<path d="M13.4602 15.5304C13.2892 15.3623 13.0861 15.2289 12.8626 15.1379C12.6391 15.0468 12.3995 15 12.1576 15C11.9156 15 11.676 15.0468 11.4525 15.1379C11.229 15.2289 11.0259 15.3623 10.8549 15.5304L10.4999 15.8793L10.1449 15.5304C9.79945 15.1909 9.33086 15.0002 8.84226 15.0002C8.35366 15.0002 7.88508 15.1909 7.53959 15.5304C7.1941 15.87 7 16.3305 7 16.8106C7 17.2908 7.1941 17.7513 7.53959 18.0908L7.89456 18.4396L10.4999 21L13.1053 18.4396L13.4602 18.0908C13.6314 17.9227 13.7671 17.7231 13.8597 17.5035C13.9523 17.2838 14 17.0484 14 16.8106C14 16.5729 13.9523 16.3374 13.8597 16.1178C13.7671 15.8981 13.6314 15.6985 13.4602 15.5304V15.5304Z" stroke="white" stroke-linecap="round" stroke-linejoin="round"/>
<path d="M20 20V17.6667C20 16.429 19.4996 15.242 18.6088 14.3668C17.718 13.4917 16.5098 13 15.25 13H5.75C4.49022 13 3.28204 13.4917 2.39124 14.3668C1.50045 15.242 1 16.429 1 17.6667V20" stroke="white" stroke-linecap="round" stroke-linejoin="round"/>
<path d="M10.5 10C12.9853 10 15 7.98528 15 5.5C15 3.01472 12.9853 1 10.5 1C8.01472 1 6 3.01472 6 5.5C6 7.98528 8.01472 10 10.5 10Z" stroke="white" stroke-linecap="round" stroke-linejoin="round"/>
</svg>
