<svg width="18" height="18" viewBox="0 0 18 18" fill="none" xmlns="http://www.w3.org/2000/svg">
<g id="symbol / check">
<path id="Vector" fill-rule="evenodd" clip-rule="evenodd" d="M15.5029 4.74773C15.6609 4.90593 15.7497 5.12039 15.7497 5.34398C15.7497 5.56758 15.6609 5.78203 15.5029 5.94023L7.34669 14.0965C7.18848 14.2544 6.97404 14.3432 6.75044 14.3432C6.52685 14.3432 6.31239 14.2544 6.15419 14.0965L2.49794 10.4402C2.3489 10.2803 2.26777 10.0687 2.27162 9.85014C2.27547 9.63155 2.36402 9.423 2.51862 9.2684C2.67321 9.11381 2.88177 9.02527 3.10036 9.02141C3.31895 9.01755 3.53049 9.09869 3.69044 9.24773L6.75044 12.3077L14.3104 4.74773C14.4686 4.58973 14.683 4.50098 14.9067 4.50098C15.1302 4.50098 15.3448 4.58973 15.5029 4.74773Z" fill="#B14378"/>
</g>
</svg>
