<svg width="21" height="23" viewBox="0 0 21 23" fill="none" xmlns="http://www.w3.org/2000/svg">
<rect x="1" y="1" width="19" height="21" rx="1.5" stroke="#C2C2C2"/>
<path d="M4 1V19" stroke="#C2C2C2"/>
<path d="M1 20.5C1 19.6716 1.67157 19 2.5 19H20V20.5C20 21.3284 19.3284 22 18.5 22H2.5C1.67157 22 1 21.3284 1 20.5V20.5Z" stroke="#C2C2C2"/>
<path d="M13 11C13 11.5523 12.3284 12 11.5 12C10.6716 12 10 11.5523 10 11" stroke="#C2C2C2" stroke-linecap="round"/>
<circle cx="9.5" cy="8.5" r="0.5" fill="#C2C2C2"/>
<circle cx="13.5" cy="8.5" r="0.5" fill="#C2C2C2"/>
<path d="M16.6385 10.3708L16.6874 9.87322C16.4321 9.8481 16.1991 10.0203 16.1484 10.2718L16.6385 10.3708ZM6.59629 10.3709L7.08639 10.2719C7.03561 10.0205 6.80283 9.84825 6.54755 9.87325L6.59629 10.3709ZM6.5963 8.33169L6.54756 8.82931C6.80284 8.85431 7.03562 8.6821 7.0864 8.43068L6.5963 8.33169ZM9.94108 4.50932L10.1046 4.98181V4.98181L9.94108 4.50932ZM13.2937 4.50932L13.4572 4.03683V4.03682L13.2937 4.50932ZM16.6384 8.33174L16.1483 8.43072C16.1991 8.68222 16.4321 8.85446 16.6874 8.82934L16.6384 8.33174ZM11.6174 14.9739C14.34 14.9739 16.6097 13.0391 17.1286 10.4698L16.1484 10.2718C15.7218 12.3838 13.8547 13.9739 11.6174 13.9739V14.9739ZM6.10618 10.4698C6.62507 13.0392 8.89473 14.9739 11.6174 14.9739V13.9739C9.38002 13.9739 7.51292 12.3839 7.08639 10.2719L6.10618 10.4698ZM6.49521 10.8758C6.54561 10.8758 6.59559 10.8733 6.64502 10.8685L6.54755 9.87325C6.53048 9.87492 6.51303 9.87579 6.49521 9.87579V10.8758ZM4.9707 9.35128C4.9707 10.1932 5.65325 10.8758 6.49521 10.8758V9.87579C6.20553 9.87579 5.9707 9.64096 5.9707 9.35128H4.9707ZM6.49521 7.82677C5.65325 7.82677 4.9707 8.50932 4.9707 9.35128H5.9707C5.9707 9.0616 6.20553 8.82677 6.49521 8.82677V7.82677ZM6.64503 7.83407C6.59561 7.82923 6.54562 7.82677 6.49521 7.82677V8.82677C6.51302 8.82677 6.53048 8.82764 6.54756 8.82931L6.64503 7.83407ZM9.77753 4.03683C7.91873 4.68024 6.50249 6.27054 6.10619 8.23271L7.0864 8.43068C7.41176 6.81977 8.57638 5.51081 10.1046 4.98181L9.77753 4.03683ZM11.6174 3.72876C10.9739 3.72876 10.3547 3.83706 9.77753 4.03683L10.1046 4.98181C10.578 4.81797 11.0867 4.72876 11.6174 4.72876V3.72876ZM13.4572 4.03682C12.8801 3.83706 12.2608 3.72876 11.6174 3.72876V4.72876C12.148 4.72876 12.6568 4.81797 13.1301 4.98181L13.4572 4.03682ZM17.1286 8.23276C16.7323 6.27057 15.316 4.68024 13.4572 4.03683L13.1301 4.98181C14.6584 5.51081 15.823 6.81979 16.1483 8.43072L17.1286 8.23276ZM16.6874 8.82934C16.7046 8.82765 16.7221 8.82677 16.74 8.82677V7.82677C16.6893 7.82677 16.6391 7.82926 16.5895 7.83414L16.6874 8.82934ZM16.74 8.82677C17.0297 8.82677 17.2645 9.0616 17.2645 9.35128H18.2645C18.2645 8.50932 17.5819 7.82677 16.74 7.82677V8.82677ZM17.2645 9.35128C17.2645 9.64096 17.0297 9.87579 16.74 9.87579V10.8758C17.5819 10.8758 18.2645 10.1932 18.2645 9.35128H17.2645ZM16.74 9.87579C16.7221 9.87579 16.7046 9.87491 16.6874 9.87322L16.5895 10.8684C16.6391 10.8733 16.6893 10.8758 16.74 10.8758V9.87579Z" fill="#C2C2C2"/>
<path d="M10 4C10 3.44772 10.4477 3 11 3H13V4C13 4.55228 12.5523 5 12 5H11C10.4477 5 10 4.55228 10 4Z" fill="#C2C2C2" stroke="#C2C2C2" stroke-linejoin="round"/>
</svg>
