<svg width="21" height="17" viewBox="0 0 21 17" fill="none" xmlns="http://www.w3.org/2000/svg">
<path d="M0.5 0.5H20.5V6C20.5 11.5228 16.0228 16 10.5 16C4.97715 16 0.5 11.5228 0.5 6V0.5Z" stroke="white" stroke-linejoin="round"/>
<path d="M1 7.61211C1.6864 7.22281 2.48333 7 3.33333 7C5.91066 7 8 9.04849 8 11.5754C8 12.9382 7.39234 14.1618 6.4282 15" stroke="white" stroke-linecap="round"/>
<path d="M20 7.61211C19.3136 7.22281 18.5167 7 17.6667 7C15.0893 7 13 9.04849 13 11.5754C13 12.9382 13.6077 14.1618 14.5718 15" stroke="white" stroke-linecap="round"/>
<path d="M0.5 2H5.25C5.80228 2 6.25 2.44772 6.25 3C6.25 3.55228 5.80228 4 5.25 4H0.5V2Z" stroke="white"/>
<path d="M20.5 4L15.75 4C15.1977 4 14.75 3.55228 14.75 3C14.75 2.44771 15.1977 2 15.75 2L20.5 2L20.5 4Z" stroke="white"/>
</svg>
