<svg width="89" height="85" viewBox="0 0 89 85" fill="none" xmlns="http://www.w3.org/2000/svg">
<path id="Vector 38" d="M44.9253 12.6387L33.1865 1.3999H12.3226M12.3226 1.3999L1.44995 12.9196V40.1736M12.3226 1.3999L26.7216 28.0919M1.44995 40.1736L43.4715 82.5999M1.44995 40.1736L26.7216 28.0919M43.4715 82.5999L87.5499 38.4878V34.5542M43.4715 82.5999L35.0965 55.3459M43.4715 82.5999L69.037 41.8925M26.7216 28.0919L35.0965 55.3459M26.7216 28.0919L56.1073 3.14611M26.7216 28.0919L62.0075 31.1826M35.0965 55.3459L64.6291 43.6397M87.5499 34.5542V13.7625L83.7298 10.1099M87.5499 34.5542L69.037 41.8925M69.037 41.8925L64.6291 43.6397M64.6291 43.6397L63.0128 35.9591M56.1073 3.14611L58.1643 1.3999H74.6203L83.7298 10.1099M56.1073 3.14611L62.0075 31.1826M63.0128 35.9591L83.7298 10.1099M63.0128 35.9591L62.0075 31.1826" stroke="white" stroke-width="2.1"/>
</svg>
