<svg width="41" height="40" viewBox="0 0 41 40" fill="none" xmlns="http://www.w3.org/2000/svg">
<path d="M20.6927 6.12111L15.3754 1H5.92491M5.92491 1L1 6.24913V18.6678M5.92491 1L12.4471 13.1626M1 18.6678L20.0341 38M1 18.6678L12.4471 13.1626M20.0341 38L40 17.8997V16.1073M20.0341 38L16.2406 25.5813M20.0341 38L31.6143 19.451M12.4471 13.1626L16.2406 25.5813M12.4471 13.1626L25.7577 1.79569M12.4471 13.1626L28.4303 14.5709M16.2406 25.5813L29.6177 20.2472M40 16.1073V6.63322L38.2696 4.96886M40 16.1073L31.6143 19.451M31.6143 19.451L29.6177 20.2472M29.6177 20.2472L28.8856 16.7474M25.7577 1.79569L26.6894 1H34.1433L38.2696 4.96886M25.7577 1.79569L28.4303 14.5709M28.8856 16.7474L38.2696 4.96886M28.8856 16.7474L28.4303 14.5709" stroke="white" stroke-width="1.8"/>
</svg>
