<svg width="18" height="18" viewBox="0 0 18 18" fill="none" xmlns="http://www.w3.org/2000/svg">
<g id="mdi:phone-outline">
<path id="Vector" d="M15 11.625C14.1 11.625 13.125 11.475 12.3 11.175H12.075C11.85 11.175 11.7 11.25 11.55 11.4L9.9 13.05C7.8 11.925 6 10.2 4.95 8.1L6.6 6.45C6.825 6.225 6.9 5.925 6.75 5.7C6.525 4.875 6.375 3.9 6.375 3C6.375 2.625 6 2.25 5.625 2.25H3C2.625 2.25 2.25 2.625 2.25 3C2.25 10.05 7.95 15.75 15 15.75C15.375 15.75 15.75 15.375 15.75 15V12.375C15.75 12 15.375 11.625 15 11.625ZM3.75 3.75H4.875C4.95 4.425 5.1 5.1 5.25 5.7L4.35 6.6C4.05 5.7 3.825 4.725 3.75 3.75ZM14.25 14.25C13.275 14.175 12.3 13.95 11.4 13.65L12.3 12.75C12.9 12.9 13.575 13.05 14.25 13.05V14.25Z" fill="#666666"/>
</g>
</svg>
