<svg width="25" height="22" viewBox="0 0 25 22" fill="none" xmlns="http://www.w3.org/2000/svg">
<path id="Vector" d="M13.7417 11.9998V16.1377C13.7417 16.467 13.6109 16.7827 13.3781 17.0155C13.1453 17.2483 12.8296 17.3791 12.5004 17.3791C12.1711 17.3791 11.8554 17.2483 11.6226 17.0155C11.3898 16.7827 11.259 16.467 11.259 16.1377V11.9998C11.259 11.6705 11.3898 11.3548 11.6226 11.122C11.8554 10.8892 12.1711 10.7584 12.5004 10.7584C12.8296 10.7584 13.1453 10.8892 13.3781 11.122C13.6109 11.3548 13.7417 11.6705 13.7417 11.9998ZM16.6445 11.8767L16.2307 16.0146C16.1981 16.3422 16.2969 16.6693 16.5055 16.9241C16.714 17.1788 17.0152 17.3402 17.3428 17.3729C17.3842 17.3729 17.4266 17.3791 17.4669 17.3791C17.7747 17.3788 18.0713 17.2643 18.2994 17.0576C18.5274 16.851 18.6706 16.567 18.7011 16.2608L19.1149 12.1229C19.1434 11.7974 19.0425 11.4739 18.8341 11.2223C18.6256 10.9708 18.3264 10.8116 18.0013 10.7792C17.6763 10.7468 17.3515 10.8438 17.0975 11.0493C16.8435 11.2547 16.6808 11.552 16.6445 11.8767ZM8.35618 11.8767C8.31993 11.552 8.15716 11.2547 7.90316 11.0493C7.64917 10.8438 7.32443 10.7468 6.99935 10.7792C6.67428 10.8116 6.37508 10.9708 6.16663 11.2223C5.95818 11.4739 5.85729 11.7974 5.88582 12.1229L6.29962 16.2608C6.33015 16.5672 6.47346 16.8513 6.70172 17.058C6.92998 17.2646 7.22689 17.3791 7.5348 17.3791C7.57514 17.3791 7.61756 17.3791 7.65894 17.3729C7.98652 17.3402 8.28771 17.1788 8.49626 16.9241C8.70481 16.6693 8.80364 16.3422 8.77101 16.0146L8.35618 11.8767ZM24.4942 8.02629L22.9352 19.716C22.8688 20.2143 22.6239 20.6715 22.2458 21.0027C21.8678 21.3339 21.3824 21.5167 20.8797 21.5171H4.12098C3.62002 21.5156 3.13648 21.333 2.75963 21.0029C2.38278 20.6729 2.13805 20.2176 2.07062 19.7212L0.511648 8.03146C0.487406 7.85575 0.501102 7.67688 0.551811 7.50691C0.602521 7.33693 0.689067 7.1798 0.80562 7.04609C0.922173 6.91238 1.06603 6.80521 1.22749 6.73178C1.38895 6.65835 1.56428 6.62038 1.74166 6.62041H6.14341L11.5693 0.423819C11.6858 0.290691 11.8294 0.184004 11.9906 0.110909C12.1517 0.0378145 12.3265 0 12.5035 0C12.6804 0 12.8552 0.0378145 13.0164 0.110909C13.1775 0.184004 13.3211 0.290691 13.4376 0.423819L18.8573 6.62041H23.259C23.4359 6.62048 23.6107 6.65834 23.7718 6.73146C23.9329 6.80458 24.0764 6.91127 24.1929 7.04439C24.3094 7.17751 24.396 7.33398 24.4471 7.50332C24.4982 7.67267 24.5125 7.85097 24.4891 8.02629H24.4942ZM9.44343 6.62041H15.5573L12.5004 3.12591L9.44343 6.62041ZM21.8408 9.10319H3.15994L4.48409 19.0343H20.5187L21.8408 9.10319Z" fill="#B14378"/>
</svg>
