<svg width="97" height="102" viewBox="0 0 97 102" fill="none" xmlns="http://www.w3.org/2000/svg">
<path id="Vector 39" d="M1.99337 0.885077C1.9299 0.336451 1.4337 -0.0568448 0.885077 0.00662565C0.336451 0.0700961 -0.0568448 0.566298 0.00662565 1.11492L1.99337 0.885077ZM46.3299 57.7686L46.2101 56.7758L46.3299 57.7686ZM40.5431 45.6039L41.0443 46.4693L40.5431 45.6039ZM96.666 95.746C97.078 95.3781 97.1138 94.746 96.7459 94.334L90.7519 87.6204C90.3841 87.2085 89.752 87.1727 89.34 87.5405C88.928 87.9083 88.8922 88.5405 89.26 88.9524L94.588 94.9201L88.6204 100.248C88.2085 100.616 88.1727 101.248 88.5405 101.66C88.9083 102.072 89.5405 102.108 89.9524 101.74L96.666 95.746ZM0.353733 4.03123C0.421426 4.57935 0.920642 4.96881 1.46876 4.90112C2.01688 4.83343 2.40635 4.33421 2.33865 3.78609L0.353733 4.03123ZM3.13555 9.59559C3.05193 9.04967 2.54159 8.67491 1.99567 8.75853C1.44975 8.84215 1.07499 9.3525 1.15861 9.89841L3.13555 9.59559ZM2.1708 15.7501C2.27628 16.2922 2.80127 16.6461 3.34338 16.5407C3.8855 16.4352 4.23947 15.9102 4.13399 15.3681L2.1708 15.7501ZM5.38645 21.069C5.25406 20.5328 4.71208 20.2055 4.1759 20.3378C3.63971 20.4702 3.31237 21.0122 3.44476 21.5484L5.38645 21.069ZM5.04158 27.2815C5.20651 27.8086 5.7675 28.1022 6.29458 27.9372C6.82167 27.7723 7.11524 27.2113 6.95031 26.6842L5.04158 27.2815ZM8.88734 32.1669C8.68317 31.6538 8.10167 31.4033 7.5885 31.6075C7.07534 31.8116 6.82485 32.3931 7.02902 32.9063L8.88734 32.1669ZM9.48886 38.3585C9.74016 38.8503 10.3426 39.0453 10.8344 38.794C11.3262 38.5427 11.5211 37.9403 11.2698 37.4485L9.48886 38.3585ZM14.1812 42.4309C13.8741 41.9719 13.253 41.8488 12.794 42.1559C12.335 42.4631 12.2119 43.0842 12.519 43.5432L14.1812 42.4309ZM16.2166 48.3065C16.5871 48.7161 17.2194 48.7478 17.629 48.3773C18.0386 48.0068 18.0702 47.3744 17.6998 46.9648L16.2166 48.3065ZM21.8739 50.8565C21.4378 50.5176 20.8096 50.5963 20.4706 51.0324C20.1317 51.4684 20.2105 52.0967 20.6465 52.4356L21.8739 50.8565ZM25.7795 55.6835C26.273 55.9314 26.874 55.7324 27.122 55.2389C27.37 54.7454 27.171 54.1444 26.6775 53.8964L25.7795 55.6835ZM31.9783 55.9326C31.4459 55.7856 30.8952 56.0979 30.7481 56.6302C30.601 57.1625 30.9133 57.7133 31.4456 57.8604L31.9783 55.9326ZM37.4039 58.9372C37.9538 58.988 38.4409 58.5834 38.4917 58.0335C38.5425 57.4835 38.1379 56.9965 37.588 56.9456L37.4039 58.9372ZM43.3277 57.0329C42.7763 57.0642 42.3546 57.5365 42.3859 58.0879C42.4171 58.6393 42.8894 59.061 43.4408 59.0297L43.3277 57.0329ZM49.3969 58.2191C49.932 58.0821 50.2547 57.5374 50.1178 57.0023C49.9808 56.4673 49.4361 56.1446 48.9011 56.2815L49.3969 58.2191ZM53.6031 54.0305C53.1832 54.3892 53.1334 55.0204 53.4921 55.4404C53.8508 55.8603 54.482 55.91 54.902 55.5514L53.6031 54.0305ZM57.651 49.7951C57.6354 49.243 57.1751 48.8081 56.6231 48.8238C56.071 48.8394 55.6362 49.2996 55.6518 49.8517L57.651 49.7951ZM53.409 45.7591C53.8483 46.0938 54.4758 46.009 54.8105 45.5696C55.1452 45.1303 55.0604 44.5029 54.6211 44.1682L53.409 45.7591ZM48.6959 42.2211C48.1437 42.2096 47.6868 42.6479 47.6753 43.2001C47.6638 43.7522 48.1021 44.2091 48.6543 44.2206L48.6959 42.2211ZM43.4865 45.2661C43.9984 45.0589 44.2454 44.4758 44.0381 43.9639C43.8308 43.452 43.2478 43.2051 42.7359 43.4123L43.4865 45.2661ZM37.5208 46.426C37.0848 46.7651 37.0063 47.3934 37.3454 47.8293C37.6846 48.2652 38.3128 48.3437 38.7488 48.0046L37.5208 46.426ZM35.2464 51.9949C35.5077 51.5084 35.3252 50.9021 34.8386 50.6408C34.3521 50.3794 33.7458 50.562 33.4845 51.0485L35.2464 51.9949ZM32.1031 57.1186C32.1249 57.6704 32.5899 58.1001 33.1417 58.0784C33.6936 58.0566 34.1233 57.5916 34.1015 57.0397L32.1031 57.1186ZM35.4114 62.2299C35.1867 61.7254 34.5955 61.4987 34.091 61.7234C33.5865 61.9481 33.3598 62.5393 33.5845 63.0438L35.4114 62.2299ZM36.6515 68.1689C36.9821 68.6113 37.6087 68.7021 38.0512 68.3715C38.4936 68.041 38.5844 67.4144 38.2538 66.9719L36.6515 68.1689ZM41.9502 71.2052C41.5599 70.8144 40.9267 70.814 40.536 71.2043C40.1452 71.5946 40.1448 72.2277 40.5351 72.6185L41.9502 71.2052ZM44.9027 76.5423C45.3313 76.8906 45.9612 76.8255 46.3095 76.3969C46.6578 75.9683 46.5927 75.3385 46.1641 74.9902L44.9027 76.5423ZM50.7266 78.3867C50.2708 78.0748 49.6485 78.1915 49.3366 78.6473C49.0247 79.103 49.1413 79.7254 49.5971 80.0373L50.7266 78.3867ZM54.5363 83.1631C55.0128 83.4423 55.6254 83.2822 55.9046 82.8057C56.1837 82.3291 56.0236 81.7165 55.5471 81.4374L54.5363 83.1631ZM60.5561 84.1597C60.0629 83.9113 59.4616 84.1097 59.2132 84.6029C58.9647 85.0962 59.1631 85.6974 59.6563 85.9459L60.5561 84.1597ZM64.9372 88.4103C65.4444 88.6289 66.0327 88.395 66.2514 87.8878C66.47 87.3806 66.2361 86.7923 65.7289 86.5736L64.9372 88.4103ZM71.04 88.6812C70.5209 88.4925 69.9472 88.7604 69.7586 89.2795C69.5699 89.7985 69.8378 90.3722 70.3568 90.5609L71.04 88.6812ZM75.8871 92.389C76.4164 92.5468 76.9734 92.2457 77.1311 91.7164C77.2889 91.1871 76.9878 90.6302 76.4585 90.4724L75.8871 92.389ZM81.9758 91.9368C81.4379 91.8116 80.9004 92.1462 80.7752 92.6841C80.65 93.222 80.9845 93.7595 81.5224 93.8847L81.9758 91.9368ZM87.2429 95.0246C87.7878 95.1147 88.3026 94.7461 88.3927 94.2012C88.4829 93.6563 88.1142 93.1416 87.5694 93.0514L87.2429 95.0246ZM93.2196 93.7872C92.6698 93.7354 92.182 94.1391 92.1302 94.6889C92.0783 95.2388 92.482 95.7265 93.0319 95.7784L93.2196 93.7872ZM0.00662565 1.11492C0.111905 2.02494 0.226432 3.00046 0.353733 4.03123L2.33865 3.78609C2.21226 2.76265 2.0984 1.79286 1.99337 0.885077L0.00662565 1.11492ZM1.15861 9.89841C1.44461 11.7655 1.77737 13.728 2.1708 15.7501L4.13399 15.3681C3.74647 13.3764 3.41818 11.4407 3.13555 9.59559L1.15861 9.89841ZM3.44476 21.5484C3.91326 23.4458 4.44207 25.3657 5.04158 27.2815L6.95031 26.6842C6.36434 24.8117 5.84632 22.9315 5.38645 21.069L3.44476 21.5484ZM7.02902 32.9063C7.76642 34.7597 8.58297 36.5857 9.48886 38.3585L11.2698 37.4485C10.3954 35.7372 9.60421 33.9687 8.88734 32.1669L7.02902 32.9063ZM12.519 43.5432C13.6421 45.2217 14.8709 46.819 16.2166 48.3065L17.6998 46.9648C16.4254 45.5561 15.2557 44.0367 14.1812 42.4309L12.519 43.5432ZM20.6465 52.4356C22.2288 53.6654 23.9365 54.7574 25.7795 55.6835L26.6775 53.8964C24.9559 53.0313 23.3581 52.01 21.8739 50.8565L20.6465 52.4356ZM31.4456 57.8604C33.3197 58.3782 35.3037 58.743 37.4039 58.9372L37.588 56.9456C35.6021 56.762 33.7349 56.418 31.9783 55.9326L31.4456 57.8604ZM43.4408 59.0297C44.4221 58.9741 45.4249 58.8851 46.4498 58.7614L46.2101 56.7758C45.226 56.8946 44.2654 56.9798 43.3277 57.0329L43.4408 59.0297ZM46.4498 58.7614C47.5118 58.6332 48.4933 58.4503 49.3969 58.2191L48.9011 56.2815C48.0888 56.4894 47.1933 56.6572 46.2101 56.7758L46.4498 58.7614ZM54.902 55.5514C56.8183 53.9149 57.7092 51.8494 57.651 49.7951L55.6518 49.8517C55.6914 51.2505 55.0996 52.7526 53.6031 54.0305L54.902 55.5514ZM54.6211 44.1682C53.0891 43.0011 51.0608 42.2702 48.6959 42.2211L48.6543 44.2206C50.6273 44.2617 52.2384 44.8673 53.409 45.7591L54.6211 44.1682ZM42.7359 43.4123C41.8585 43.7676 40.9593 44.2073 40.042 44.7386L41.0443 46.4693C41.8853 45.9822 42.7007 45.5843 43.4865 45.2661L42.7359 43.4123ZM40.042 44.7386C39.1193 45.2729 38.2794 45.8358 37.5208 46.426L38.7488 48.0046C39.4295 47.4751 40.193 46.9622 41.0443 46.4693L40.042 44.7386ZM33.4845 51.0485C32.4568 52.9618 32.0198 55.0074 32.1031 57.1186L34.1015 57.0397C34.0316 55.2677 34.3958 53.5785 35.2464 51.9949L33.4845 51.0485ZM33.5845 63.0438C34.3466 64.7546 35.3828 66.4705 36.6515 68.1689L38.2538 66.9719C37.0573 65.3702 36.1027 63.7818 35.4114 62.2299L33.5845 63.0438ZM40.5351 72.6185C41.8631 73.9482 43.3247 75.2599 44.9027 76.5423L46.1641 74.9902C44.6345 73.7472 43.2249 72.4815 41.9502 71.2052L40.5351 72.6185ZM49.5971 80.0373C51.1674 81.1118 52.8175 82.1564 54.5363 83.1631L55.5471 81.4374C53.8671 80.4533 52.2566 79.4337 50.7266 78.3867L49.5971 80.0373ZM59.6563 85.9459C61.3687 86.8085 63.132 87.6321 64.9372 88.4103L65.7289 86.5736C63.9599 85.8111 62.2327 85.0043 60.5561 84.1597L59.6563 85.9459ZM70.3568 90.5609C72.1715 91.2204 74.0176 91.8317 75.8871 92.389L76.4585 90.4724C74.6272 89.9265 72.8183 89.3275 71.04 88.6812L70.3568 90.5609ZM81.5224 93.8847C83.4161 94.3255 85.3255 94.7074 87.2429 95.0246L87.5694 93.0514C85.696 92.7415 83.8289 92.3681 81.9758 91.9368L81.5224 93.8847ZM93.0319 95.7784C94.0026 95.8699 94.9735 95.9435 95.9435 95.9984L96.0565 94.0016C95.112 93.9481 94.1661 93.8764 93.2196 93.7872L93.0319 95.7784Z" fill="#CACACA"/>
</svg>
