<svg width="16" height="16" viewBox="0 0 16 16" fill="none" xmlns="http://www.w3.org/2000/svg">
<g id="symbol / x">
<path id="Vector" fill-rule="evenodd" clip-rule="evenodd" d="M3.72007 3.71991C3.86069 3.57946 4.05132 3.50057 4.25007 3.50057C4.44882 3.50057 4.63944 3.57946 4.78007 3.71991L8.00007 6.93991L11.2201 3.71991C11.2888 3.64622 11.3716 3.58712 11.4636 3.54613C11.5556 3.50514 11.6549 3.4831 11.7556 3.48132C11.8563 3.47954 11.9563 3.49807 12.0497 3.53579C12.1431 3.57351 12.2279 3.62965 12.2991 3.70087C12.3704 3.77209 12.4265 3.85693 12.4642 3.95031C12.5019 4.0437 12.5205 4.14373 12.5187 4.24443C12.5169 4.34514 12.4949 4.44445 12.4539 4.53645C12.4129 4.62845 12.3538 4.71125 12.2801 4.77991L9.06007 7.99991L12.2801 11.2199C12.3538 11.2886 12.4129 11.3714 12.4539 11.4634C12.4949 11.5554 12.5169 11.6547 12.5187 11.7554C12.5205 11.8561 12.5019 11.9561 12.4642 12.0495C12.4265 12.1429 12.3704 12.2277 12.2991 12.2989C12.2279 12.3702 12.1431 12.4263 12.0497 12.464C11.9563 12.5017 11.8563 12.5203 11.7556 12.5185C11.6549 12.5167 11.5556 12.4947 11.4636 12.4537C11.3716 12.4127 11.2888 12.3536 11.2201 12.2799L8.00007 9.05991L4.78007 12.2799C4.63789 12.4124 4.44984 12.4845 4.25554 12.4811C4.06124 12.4776 3.87586 12.3989 3.73844 12.2615C3.60103 12.1241 3.52232 11.9387 3.51889 11.7444C3.51546 11.5501 3.58759 11.3621 3.72007 11.2199L6.94007 7.99991L3.72007 4.77991C3.57962 4.63929 3.50073 4.44866 3.50073 4.24991C3.50073 4.05116 3.57962 3.86054 3.72007 3.71991Z" fill="#E60606"/>
</g>
</svg>
