<svg width="16" height="16" viewBox="0 0 16 16" fill="none" xmlns="http://www.w3.org/2000/svg">
<g id="attention / warning">
<path id="coolicon" d="M14.1773 13.9987H1.82192C1.58375 13.9987 1.36367 13.8716 1.24459 13.6653C1.1255 13.4591 1.1255 13.2049 1.24459 12.9987L7.42192 2.33199C7.5411 2.12607 7.761 1.99927 7.99892 1.99927C8.23685 1.99927 8.45674 2.12607 8.57592 2.33199L14.7533 12.9987C14.8723 13.2048 14.8724 13.4588 14.7534 13.665C14.6345 13.8713 14.4146 13.9984 14.1766 13.9987H14.1773ZM7.33326 10.6653V11.9987H7.95526H7.99859H8.04192H8.66526V10.6653H7.33326ZM7.33326 5.99866V9.332H8.66659V5.99866H7.33326Z" fill="#E60606"/>
</g>
</svg>
